<svg width="24" height="24" viewBox="0 0 24 24" xmlns="http://www.w3.org/2000/svg">
<path d="M5.14002 24C4.23216 24.0027 3.33274 23.8382 2.49393 23.5159C1.65513 23.1936 0.893618 22.7199 0.253579 22.1224C0.173229 22.0484 0.109452 21.9605 0.06593 21.8635C0.0224075 21.7666 0 21.6626 0 21.5575C0 21.4525 0.0224075 21.3485 0.06593 21.2516C0.109452 21.1546 0.173229 21.0666 0.253579 20.9927C0.413828 20.8469 0.629275 20.7653 0.853668 20.7653C1.07806 20.7653 1.29351 20.8469 1.45376 20.9927C1.93306 21.4498 2.50621 21.8131 3.13934 22.0612C3.77248 22.3092 4.45276 22.4371 5.14002 22.4371C5.82727 22.4371 6.50756 22.3092 7.1407 22.0612C7.77383 21.8131 8.34698 21.4498 8.82628 20.9927L20.8281 9.85457C21.318 9.41001 21.7072 8.8791 21.973 8.293C22.2388 7.70689 22.3757 7.07742 22.3757 6.44154C22.3757 5.80566 22.2388 5.17619 21.973 4.59009C21.7072 4.00399 21.318 3.47307 20.8281 3.02851C19.8357 2.14736 18.5152 1.65555 17.1418 1.65555C15.7684 1.65555 14.4479 2.14736 13.4555 3.02851L3.59693 12.1777C3.38395 12.3633 3.21341 12.5868 3.09546 12.8349C2.97752 13.083 2.91459 13.3506 2.91042 13.6218C2.90626 13.8929 2.96093 14.1621 3.0712 14.4132C3.18147 14.6643 3.34507 14.8923 3.55226 15.0835C3.75945 15.2747 4.00599 15.4252 4.2772 15.5262C4.5484 15.6271 4.83872 15.6764 5.13086 15.671C5.423 15.6656 5.71099 15.6057 5.97766 15.4949C6.24434 15.384 6.48425 15.2245 6.68311 15.0258L16.5417 5.87668C16.702 5.73091 16.9174 5.64926 17.1418 5.64926C17.3662 5.64926 17.5816 5.73091 17.7419 5.87668C17.8222 5.95064 17.886 6.03863 17.9295 6.13558C17.9731 6.23253 17.9955 6.33651 17.9955 6.44154C17.9955 6.54657 17.9731 6.65055 17.9295 6.7475C17.886 6.84445 17.8222 6.93244 17.7419 7.0064L7.88328 16.1556C7.14567 16.8129 6.16266 17.18 5.14002 17.18C4.11738 17.18 3.13437 16.8129 2.39675 16.1556C2.03336 15.8212 1.74492 15.4234 1.54808 14.9851C1.35123 14.5468 1.24989 14.0766 1.24989 13.6018C1.24989 13.1269 1.35123 12.6567 1.54808 12.2184C1.74492 11.7801 2.03336 11.3823 2.39675 11.0479L12.2554 1.89879C13.2116 0.997632 14.4355 0.381313 15.7708 0.128476C17.1062 -0.124362 18.4924 -0.00225308 19.7526 0.479221C21.0128 0.960695 22.0899 1.7797 22.8464 2.83173C23.6029 3.88375 24.0045 5.12109 24 6.38585C24.0007 7.2295 23.8207 8.06486 23.4704 8.84337C23.1202 9.62187 22.6066 10.328 21.9597 10.9206L9.95788 22.0588C9.33164 22.6602 8.58381 23.1413 7.75713 23.4744C6.93045 23.8074 6.04113 23.986 5.14002 24Z"/>
</svg>
