<svg width="24" height="24" viewBox="0 0 24 24" xmlns="http://www.w3.org/2000/svg">
<path d="M21.2325 6.42964C21.1148 6.27776 20.9432 6.17687 20.7533 6.14778C20.5633 6.11869 20.3695 6.16362 20.2117 6.2733C20.0539 6.38299 19.9442 6.54905 19.9053 6.73723C19.8664 6.92542 19.9012 7.12136 20.0025 7.28463C20.8766 8.54056 21.4429 9.9846 21.6555 11.4999C21.868 13.0153 21.721 14.5594 21.2261 16.0074C20.7313 17.4553 19.9026 18.7665 18.8071 19.8348C17.7116 20.9031 16.38 21.6986 14.92 22.1569C13.4601 22.6152 11.9128 22.7234 10.4033 22.4728C8.89373 22.2222 7.46438 21.6198 6.23082 20.7144C4.99727 19.809 3.99413 18.6259 3.30257 17.2609C2.61101 15.8959 2.25043 14.3873 2.25 12.8571C2.25945 10.7592 2.94124 8.71951 4.19527 7.03756C5.4493 5.35562 7.20952 4.12001 9.2175 3.51214C9.31206 3.48407 9.40015 3.43765 9.47676 3.37553C9.55338 3.31341 9.61701 3.23681 9.66401 3.15011C9.71102 3.0634 9.7405 2.96828 9.75075 2.87019C9.76099 2.77209 9.75182 2.67294 9.72375 2.57839C9.69568 2.48383 9.64927 2.39574 9.58715 2.31912C9.52503 2.24251 9.44843 2.17888 9.36173 2.13187C9.27502 2.08486 9.1799 2.05539 9.08181 2.04514C8.98371 2.03489 8.88456 2.04407 8.79 2.07214C6.79025 2.66748 4.99547 3.80722 3.60624 5.36398C2.21701 6.92073 1.28809 8.83316 0.923289 10.8875C0.558488 12.9419 0.772185 15.0572 1.5405 16.9971C2.30881 18.9369 3.60146 20.6249 5.27398 21.8724C6.94649 23.1198 8.93297 23.8776 11.0114 24.0609C13.0898 24.2443 15.1783 23.846 17.0433 22.9107C18.9084 21.9753 20.4766 20.5397 21.5727 18.7643C22.6688 16.9889 23.2495 14.9436 23.25 12.8571C23.2542 10.5582 22.5497 8.31382 21.2325 6.42964Z"/>
<path d="M14.7825 3.51216C15.9517 3.86693 17.0434 4.43948 18 5.19966C18.0773 5.26072 18.1659 5.30596 18.2607 5.33279C18.3555 5.35962 18.4546 5.36751 18.5525 5.35602C18.6503 5.34453 18.745 5.31388 18.831 5.26581C18.917 5.21775 18.9927 5.15322 19.0537 5.07591C19.1148 4.99859 19.16 4.91 19.1869 4.8152C19.2137 4.72041 19.2216 4.62125 19.2101 4.5234C19.1986 4.42555 19.168 4.33092 19.1199 4.24492C19.0718 4.15892 19.0073 4.08322 18.93 4.02216C17.8154 3.13953 16.5426 2.47769 15.18 2.07216C14.989 2.01547 14.7834 2.03695 14.6083 2.13189C14.4331 2.22683 14.3029 2.38745 14.2462 2.57841C14.1895 2.76936 14.211 2.97502 14.306 3.15013C14.4009 3.32524 14.5615 3.45547 14.7525 3.51216H14.7825ZM11.4675 2.88966C11.5404 2.9559 11.6241 3.00917 11.715 3.04716C11.8048 3.08683 11.9018 3.10733 12 3.10733C12.0981 3.10733 12.1952 3.08683 12.285 3.04716C12.3758 3.00904 12.4595 2.95579 12.5325 2.88966C12.602 2.81958 12.657 2.73646 12.6943 2.64509C12.7316 2.55371 12.7506 2.45586 12.75 2.35716C12.7472 2.15858 12.6695 1.96838 12.5325 1.82466C12.4459 1.73435 12.3381 1.66715 12.2189 1.62916C12.0997 1.59117 11.9729 1.58361 11.85 1.60716C11.803 1.61547 11.7575 1.63063 11.715 1.65216C11.6671 1.6684 11.6217 1.69111 11.58 1.71966L11.4675 1.80966C11.3992 1.88098 11.3457 1.96509 11.31 2.05716C11.2696 2.15197 11.2492 2.2541 11.25 2.35716C11.2512 2.45516 11.2715 2.55199 11.31 2.64216C11.3481 2.73298 11.4013 2.81667 11.4675 2.88966ZM17.0325 7.82465C16.892 7.68497 16.7019 7.60656 16.5037 7.60656C16.3056 7.60656 16.1155 7.68497 15.975 7.82465L12 11.7997L8.03248 7.82465C7.889 7.70179 7.70445 7.63758 7.51569 7.64487C7.32693 7.65216 7.14788 7.73041 7.01431 7.86398C6.88074 7.99755 6.80249 8.17661 6.7952 8.36536C6.78791 8.55412 6.85211 8.73868 6.97498 8.88215L10.9425 12.8572L6.96748 16.8247C6.88897 16.8919 6.8252 16.9746 6.78019 17.0677C6.73517 17.1607 6.70987 17.2621 6.70588 17.3654C6.70189 17.4687 6.7193 17.5717 6.757 17.6679C6.79471 17.7641 6.8519 17.8516 6.92499 17.9246C6.99808 17.9977 7.08549 18.0549 7.18174 18.0926C7.27798 18.1303 7.38098 18.1477 7.48427 18.1438C7.58756 18.1398 7.68891 18.1145 7.78196 18.0694C7.87501 18.0244 7.95774 17.9607 8.02498 17.8822L12 13.9147L15.9675 17.8822C16.111 18.005 16.2955 18.0692 16.4843 18.0619C16.673 18.0546 16.8521 17.9764 16.9857 17.8428C17.1192 17.7093 17.1975 17.5302 17.2048 17.3414C17.2121 17.1527 17.1479 16.9681 17.025 16.8247L13.0575 12.8572L17.025 8.88965C17.0958 8.82043 17.1522 8.73787 17.1909 8.64674C17.2296 8.55562 17.2499 8.45773 17.2506 8.35872C17.2513 8.25971 17.2324 8.16154 17.1949 8.06988C17.1575 7.97821 17.1023 7.89487 17.0325 7.82465Z"/>
</svg>
