<svg width="24" height="24" viewBox="0 0 24 24" xmlns="http://www.w3.org/2000/svg">
<path d="M14.793 7.368L6.43301 15.728C6.25291 15.9074 6.10867 16.1195 6.00801 16.353L4.28001 19.52L7.64501 17.99C7.87801 17.889 8.09001 17.745 8.26901 17.566L16.629 9.204C16.4032 8.8291 16.1299 8.48492 15.816 8.18C15.5113 7.86649 15.1675 7.59357 14.793 7.368ZM16.239 5.922C16.574 6.159 16.904 6.441 17.229 6.766C17.556 7.092 17.838 7.423 18.075 7.758L19.545 6.287C19.6146 6.2175 19.6622 6.129 19.6818 6.03259C19.7013 5.93618 19.692 5.83614 19.655 5.745C19.549 5.483 19.358 5.208 19.073 4.923C18.789 4.639 18.514 4.448 18.251 4.341C18.16 4.3042 18.0602 4.295 17.964 4.31456C17.8677 4.33413 17.7794 4.38158 17.71 4.451L16.239 5.922ZM4.17001 15.564C4.37073 15.0973 4.65852 14.673 5.01801 14.314L16.296 3.036C16.6435 2.68846 17.0856 2.45103 17.5673 2.35339C18.0489 2.25575 18.5486 2.30222 19.004 2.487C19.529 2.701 20.024 3.044 20.488 3.508C20.952 3.973 21.295 4.467 21.508 4.992C21.6929 5.44728 21.7395 5.94695 21.6421 6.42858C21.5446 6.91021 21.3074 7.35244 20.96 7.7L9.68301 18.98C9.32419 19.339 8.90031 19.6265 8.43401 19.827L4.99201 21.307C4.67043 21.4455 4.31471 21.4843 3.97083 21.4184C3.62696 21.3526 3.31074 21.1851 3.06306 20.9376C2.81538 20.6902 2.64762 20.3741 2.58147 20.0303C2.51533 19.6865 2.55383 19.3307 2.69201 19.009L4.17001 15.564Z"/>
</svg>
