<svg width="24" height="24" viewBox="0 0 24 24" xmlns="http://www.w3.org/2000/svg">
    <path d="M14.793 7.36792L6.43298 15.7279C6.25288 15.9074 6.10864 16.1195 6.00798 16.3529L4.27998 19.5199L7.64498 17.9899C7.87798 17.8889 8.08998 17.7449 8.26898 17.5659L16.629 9.20392C16.4032 8.82903 16.1299 8.48485 15.816 8.17992C15.5113 7.86642 15.1675 7.5935 14.793 7.36792ZM16.239 5.92192C16.574 6.15892 16.904 6.44092 17.229 6.76592C17.556 7.09192 17.838 7.42292 18.075 7.75792L19.545 6.28692C19.6146 6.21742 19.6622 6.12893 19.6817 6.03252C19.7013 5.93611 19.692 5.83607 19.655 5.74492C19.549 5.48292 19.358 5.20792 19.073 4.92292C18.789 4.63892 18.514 4.44792 18.251 4.34092C18.16 4.30412 18.0601 4.29493 17.9639 4.31449C17.8677 4.33405 17.7794 4.3815 17.71 4.45092L16.239 5.92192ZM4.16998 15.5639C4.37069 15.0972 4.65849 14.673 5.01798 14.3139L16.296 3.03592C16.6434 2.68838 17.0856 2.45096 17.5672 2.35331C18.0489 2.25567 18.5486 2.30214 19.004 2.48692C19.529 2.70092 20.024 3.04392 20.488 3.50792C20.952 3.97292 21.295 4.46692 21.508 4.99192C21.6929 5.4472 21.7395 5.94687 21.6421 6.4285C21.5446 6.91013 21.3073 7.35236 20.96 7.69992L9.68298 18.9799C9.32416 19.3389 8.90028 19.6264 8.43398 19.8269L4.99198 21.3069C4.6704 21.4454 4.31468 21.4842 3.9708 21.4183C3.62693 21.3525 3.31071 21.185 3.06303 20.9376C2.81535 20.6901 2.64759 20.374 2.58144 20.0302C2.5153 19.6864 2.5538 19.3306 2.69198 19.0089L4.16998 15.5639Z"/>
</svg>
