<svg width="24" height="24" viewBox="0 0 24 24" xmlns="http://www.w3.org/2000/svg">
<path fill-rule="evenodd" clip-rule="evenodd" d="M12 9.75C10.7574 9.75 9.75 10.7574 9.75 12C9.75 13.2426 10.7574 14.25 12 14.25C13.2426 14.25 14.25 13.2426 14.25 12C14.25 10.7574 13.2426 9.75 12 9.75ZM8.25 12C8.25 9.92893 9.92893 8.25 12 8.25C14.0711 8.25 15.75 9.92893 15.75 12C15.75 14.0711 14.0711 15.75 12 15.75C9.92893 15.75 8.25 14.0711 8.25 12Z"/>
<path fill-rule="evenodd" clip-rule="evenodd" d="M9.35347 3.95976C9.0858 3.51381 8.52209 3.37509 8.10347 3.62415L8.09256 3.63063L6.36251 4.62054C5.81514 4.93333 5.6263 5.64247 5.9394 6.18438L5.29 6.55959L5.93888 6.18349C6.47395 7.10662 6.61779 8.1184 6.13982 8.94781C5.66192 9.77711 4.71479 10.1596 3.65 10.1596C3.01678 10.1596 2.5 10.6813 2.5 11.3096V13.0696C2.5 13.698 3.01678 14.2196 3.65 14.2196C4.71479 14.2196 5.66192 14.6021 6.13982 15.4314C6.61773 16.2607 6.47398 17.2723 5.93909 18.1954C5.62642 18.7372 5.81491 19.4457 6.3621 19.7584L8.10352 20.755C8.52214 21.004 9.08577 20.8654 9.35345 20.4195L9.46093 20.2338C9.9958 19.311 10.802 18.6821 11.7587 18.6821C12.7162 18.6821 13.52 19.3115 14.05 20.2354C14.0502 20.2358 14.0504 20.2362 14.0507 20.2366L14.1565 20.4194C14.4242 20.8654 14.9879 21.0041 15.4065 20.7551L15.4174 20.7486L17.1475 19.7587C17.6934 19.4467 17.8851 18.7474 17.5698 18.1934C17.0358 17.2709 16.8926 16.2601 17.3702 15.4314C17.8481 14.6021 18.7952 14.2196 19.86 14.2196C20.4932 14.2196 21.01 13.698 21.01 13.0696V11.3096C21.01 10.6764 20.4884 10.1596 19.86 10.1596C18.7952 10.1596 17.8481 9.77711 17.3702 8.94782C16.8923 8.11857 17.036 7.10702 17.5708 6.18403C17.8836 5.64216 17.6951 4.93349 17.1479 4.62077L15.4065 3.62424C14.9879 3.37518 14.4242 3.51381 14.1565 3.95977L14.0491 4.14537C13.5142 5.06818 12.708 5.69709 11.7512 5.69709C10.7939 5.69709 9.9902 5.06783 9.46021 4.14413C9.45992 4.14361 9.45962 4.1431 9.45933 4.14259L9.35347 3.95976ZM7.34248 2.33151C8.50191 1.64614 9.9726 2.06662 10.6446 3.19612L10.6491 3.20379L10.7591 3.39381L10.7607 3.39659C11.1307 4.04205 11.5166 4.19709 11.7512 4.19709C11.987 4.19709 12.3759 4.04073 12.7509 3.39381C12.7509 3.39392 12.751 3.3937 12.7509 3.39381L12.8654 3.19609C13.5374 2.06658 15.0081 1.64614 16.1675 2.33151L17.8921 3.31841C19.1647 4.04562 19.5963 5.67671 18.8694 6.9348L18.8689 6.93569C18.4939 7.58256 18.5528 7.99578 18.6698 8.19887C18.7869 8.40207 19.1148 8.65959 19.86 8.65959C21.3116 8.65959 22.51 9.84281 22.51 11.3096V13.0696C22.51 14.5213 21.3268 15.7196 19.86 15.7196C19.1148 15.7196 18.7869 15.9771 18.6698 16.1803C18.5528 16.3834 18.4939 16.7966 18.8689 17.4435L18.8712 17.4475C19.5944 18.7131 19.1657 20.3327 17.8925 21.0606C17.8924 21.0606 17.8926 21.0605 17.8925 21.0606L16.1674 22.0477C15.008 22.733 13.5374 22.3126 12.8654 21.1831L12.8609 21.1754L12.7509 20.9854L12.7493 20.9826C12.3793 20.3372 11.9934 20.1821 11.7587 20.1821C11.523 20.1821 11.1341 20.3385 10.7591 20.9854C10.759 20.9855 10.7591 20.9853 10.7591 20.9854L10.6446 21.1831C9.9726 22.3126 8.50199 22.733 7.34257 22.0477L5.6179 21.0608C5.61776 21.0607 5.61803 21.0609 5.6179 21.0608C4.34558 20.3335 3.91378 18.7024 4.6406 17.4444L4.64112 17.4435C5.01605 16.7966 4.95721 16.3834 4.84018 16.1803C4.72308 15.9771 4.39521 15.7196 3.65 15.7196C2.18322 15.7196 1 14.5213 1 13.0696V11.3096C1 9.85795 2.18322 8.65959 3.65 8.65959C4.39521 8.65959 4.72308 8.40207 4.84018 8.19887C4.95721 7.99578 5.01605 7.58256 4.64112 6.93569L4.6406 6.9348C3.91378 5.67684 4.34518 4.04597 5.61749 3.31864L7.34248 2.33151Z"/>
</svg>
