<svg width="24" height="24" viewBox="0 0 24 24" fill="none" xmlns="http://www.w3.org/2000/svg">
<g clip-path="url(#clip0_30_7878)">
<path fill-rule="evenodd" clip-rule="evenodd" d="M20.6516 0.0828522L2.04023 4.73568C-0.433399 5.35409 -0.742187 8.7446 1.57903 9.79974L7.31326 12.4062C8.4889 12.9405 9.76152 13.1336 10.9982 13.0018C10.8665 14.2385 11.0594 15.5111 11.5938 16.6868L14.2003 22.4209C15.2555 24.7422 18.646 24.4334 19.2644 21.9598L23.9171 3.34847C24.4103 1.37625 22.6238 -0.410199 20.6516 0.0828522ZM8.30629 10.2215C9.43066 10.7326 10.6891 10.7716 11.8161 10.372C12.242 10.2209 12.6491 10.0071 13.0231 9.73243C13.0752 9.69415 13.1267 9.65468 13.1774 9.61412L15.9237 7.41709C16.3608 7.06741 16.9327 7.63927 16.5829 8.07637L14.3859 10.8226C14.3453 10.8734 14.3059 10.9249 14.2676 10.9769C13.993 11.3509 13.7792 11.7581 13.6281 12.184C13.2283 13.3109 13.2674 14.5693 13.7784 15.6937L16.3849 21.4279C16.4999 21.6806 16.869 21.647 16.9363 21.3778L21.5891 2.76645C21.6428 2.55174 21.4483 2.35727 21.2336 2.41095L2.62227 7.06377C2.35297 7.13109 2.31936 7.50019 2.57205 7.61505L8.30629 10.2215Z" fill="#DB006E"/>
</g>
<defs>
<clipPath id="clip0_30_7878">
<rect width="24" height="24" fill="white"/>
</clipPath>
</defs>
</svg>
